<?xml version="1.0" encoding="iso-8859-1"?>
<!-- Generator: Adobe Illustrator 19.0.0, SVG Export Plug-In . SVG Version: 6.00 Build 0)  -->
<svg version="1.1" id="Layer_1" xmlns="http://www.w3.org/2000/svg" xmlns:xlink="http://www.w3.org/1999/xlink" x="0px" y="0px"
	 viewBox="0 0 484.271 484.271" style="enable-background:new 0 0 484.271 484.271;" xml:space="preserve">
<g>
	<g>
		<g>
			<path d="M39.938,0v49.923H0v434.348h434.348v-69.892h49.923V0H39.938z M419.348,469.271H15V64.923h404.348V469.271z
				 M469.271,399.379h-34.923V49.923H54.938V15h414.333V399.379z"/>
			<path d="M90.234,355.359c0,4.692,1.817,9.093,5.117,12.393l21.167,21.166c3.3,3.301,7.7,5.118,12.393,5.118
				s9.093-1.817,12.393-5.117l75.87-75.871l75.87,75.871c3.301,3.3,7.701,5.117,12.393,5.117s9.093-1.817,12.392-5.117
				l21.169-21.167c6.833-6.833,6.833-17.952,0-24.785l-75.871-75.87l75.871-75.871c6.832-6.834,6.832-17.951,0-24.784
				l-21.168-21.168c-6.832-6.83-17.95-6.833-24.784,0l-75.871,75.871l-75.87-75.871c-6.833-6.831-17.95-6.834-24.785,0.001
				l-21.166,21.167c-3.301,3.3-5.118,7.7-5.118,12.393c0,4.691,1.817,9.092,5.117,12.393l75.871,75.87l-75.87,75.87
				C92.052,346.267,90.234,350.667,90.234,355.359z M105.959,353.574l86.477-86.478l-86.477-86.478
				c-0.631-0.63-0.725-1.389-0.725-1.785s0.094-1.155,0.725-1.786l21.167-21.167c0.967-0.969,2.604-0.969,3.57,0l86.478,86.477
				l86.477-86.477c0.969-0.97,2.604-0.968,3.571,0l21.168,21.168c0.968,0.968,0.968,2.604,0,3.57l-86.477,86.478l86.477,86.478
				c0.969,0.968,0.969,2.603,0.001,3.57l-21.169,21.168c-0.63,0.63-1.389,0.724-1.785,0.724s-1.155-0.094-1.785-0.725
				l-86.478-86.477l-86.478,86.478c-0.63,0.63-1.389,0.724-1.785,0.724s-1.155-0.094-1.785-0.725l-21.168-21.167
				c-0.63-0.63-0.724-1.389-0.724-1.785S105.328,354.204,105.959,353.574z"/>
		</g>
	</g>
</g>
<g>
</g>
<g>
</g>
<g>
</g>
<g>
</g>
<g>
</g>
<g>
</g>
<g>
</g>
<g>
</g>
<g>
</g>
<g>
</g>
<g>
</g>
<g>
</g>
<g>
</g>
<g>
</g>
<g>
</g>
</svg>
